<svg xmlns="http://www.w3.org/2000/svg" viewBox="0 0 518.02 130.79"><defs><style>.cls-1{fill:#54b8f8;}.cls-2{fill:#fff;}.cls-3{fill:#08007b;}</style></defs><g id="Capa_2" data-name="Capa 2"><g id="Capa_1-2" data-name="Capa 1"><path class="cls-1" d="M94.46,2.51C43.2,2.51,1.72,29.07,1.72,61.83s41.48,61.83,92.74,61.83,92.75-29.07,92.75-61.83S145.72,2.51,94.46,2.51Z"/><path class="cls-2" d="M64.34,43.47c0,.13-.93,1.05-.4,1.71C65.4,47,69.76,48.09,74.25,47c2.64-.66,6.08-3.3,9.38-5.94,3.57-2.91,7.13-5.68,10.7-6.87a13.14,13.14,0,0,1,7.79-.27c1.72.53,3.84,1.72,7.14,4.1,6.21,4.62,31.18,26.55,35.54,30.25a235.82,235.82,0,0,1,41.08-12.94C184,44.13,177.3,33.42,167,25.1c-14.4,6.08-33.16,9.65-50.33,1.32-.14,0-9.38-4.49-18.63-4.22-13.61.26-19.55,6.2-25.9,12.41Z"/><path class="cls-2" d="M143.87,71c-.26-.27-29.33-25.77-35.93-30.66-3.83-2.9-6-3.56-8.19-3.83a9.22,9.22,0,0,0-3.83.4c-3,.79-7.14,3.57-10.71,6.34s-7.13,5.68-10.43,6.48c-4.1.92-9.12-.14-11.5-1.72a4.61,4.61,0,0,1-1.85-2.12A3.66,3.66,0,0,1,62.36,42l8.06-8.72,2.77-2.77c-2.64.39-5,1.06-7.26,1.58a32.55,32.55,0,0,1-8.59,1.59c-1.19,0-7.53-1.06-8.72-1.32-7.27-2-15.46-4-25-8.33C12.29,32.5,4.76,42.94,2.64,54.7l7,1.71c25.9,5.68,33.83,11.63,35.28,13a8.68,8.68,0,0,1,6.34-2.91,8.52,8.52,0,0,1,7,3.7A9.74,9.74,0,0,1,64.47,68a12.74,12.74,0,0,1,3.7.66,8.41,8.41,0,0,1,5.15,4.76,8.88,8.88,0,0,1,3.57-.8,10.84,10.84,0,0,1,4.36.93c4.76,2,5.55,6.74,5,10.3h1.06a10.38,10.38,0,0,1,9.11,15.2c1.59.92,5.42,2.77,8.86,2.37,2.77-.39,3.83-1.32,4.09-1.85s.53-.79.26-1l-7.26-8.06s-1.19-1.19-.79-1.59,1.19.14,1.71.66a109.58,109.58,0,0,1,8.19,7.8,3.52,3.52,0,0,0,2.12.92A7.64,7.64,0,0,0,119.43,97a11,11,0,0,0,1.32-1.32l-.13.13c1.85-2.38-.26-4.75-.26-4.75l-8.46-9.52s-1.19-1.18-.79-1.58,1.19.26,1.72.66c2.64,2.25,6.47,6.08,10.17,9.64.66.53,4,2.51,8.19-.26a6,6,0,0,0,3-5.28,5.65,5.65,0,0,0-1.85-3.57L120.75,69.49s-1.19-1-.79-1.58,1.19.13,1.72.66c3.7,3,13.74,12.28,13.74,12.28a7.14,7.14,0,0,0,7.92-.13A5.33,5.33,0,0,0,146,76.49,7.2,7.2,0,0,0,143.87,71Z"/><path class="cls-2" d="M87.46,85.74c-1.85,0-3.83,1.06-4.1.93s.14-.8.27-1.19,2.51-7.53-3.3-10c-4.5-1.85-7.14.26-8.06,1.19-.27.26-.4.26-.4-.14a6.44,6.44,0,0,0-4.49-5.94,8.7,8.7,0,0,0-9.91,3.57,6.3,6.3,0,1,0-6.21,7.13,6.19,6.19,0,0,0,4.36-1.72v.27c-.26,1.58-.79,7.26,5.15,9.64a6.09,6.09,0,0,0,6.08-.92c.53-.4.53-.27.53.26-.27,1.45,0,4.62,4.49,6.34a5.74,5.74,0,0,0,6.61-1.19c.52-.53.66-.39.79.4a7.93,7.93,0,0,0,15.85-.26A7.54,7.54,0,0,0,87.46,85.74Z"/><path class="cls-3" d="M94.46,0C42.28,0,0,27.74,0,61.83V65.4c0,36.06,37,65.39,94.46,65.39,57.87,0,94.46-29.19,94.46-65.39V61.83C188.92,27.74,146.65,0,94.46,0ZM184.7,55a219,219,0,0,0-39.64,12.95c-9-7.8-29.72-25.9-35.27-30-3.17-2.38-5.42-3.7-7.27-4.23A11.75,11.75,0,0,0,99,33.16a15.4,15.4,0,0,0-4.62.79c-3.57,1.19-7.27,4-10.7,6.74l-.13.13c-3.31,2.65-6.61,5.29-9.12,5.82A14.66,14.66,0,0,1,71,47c-2.91,0-5.42-.79-6.35-2.11-.13-.27,0-.53.27-1.06h0l7.93-8.45c6.2-6.21,12-12,25.49-12.29H99a45.75,45.75,0,0,1,17.71,4.23,54.54,54.54,0,0,0,24,5.81c8.46,0,17.18-2.11,26.29-6.34C176.37,34.75,182.85,44.39,184.7,55ZM94.46,3.7c27.75,0,52.45,7.93,69.1,20.48-8.06,3.43-15.72,5.28-23.12,5.28A51,51,0,0,1,118,24c-.4-.13-9.65-4.49-19.16-4.49H98c-11.23.27-17.57,4.23-21.93,7.8a43.55,43.55,0,0,0-11,2,29.82,29.82,0,0,1-7.66,1.45c-.93,0-2.77-.13-2.91-.13C51.79,30.52,38.05,27.22,27,23,43.6,11.1,67.64,3.7,94.46,3.7ZM23.65,25.37c11.49,4.75,25.5,8.32,30,8.58a33,33,0,0,0,3.83.27,33.84,33.84,0,0,0,8.72-1.59c1.72-.53,3.57-.92,5.42-1.32L70,32.9l-7.93,8.58A4,4,0,0,0,61,46a6.73,6.73,0,0,0,2.11,2.37c1.85,1.33,5.29,2.12,8.46,2.12a14.08,14.08,0,0,0,3.43-.4c3.3-.79,6.87-3.57,10.57-6.47,3-2.38,7.13-5.42,10.44-6.21A10.73,10.73,0,0,1,99,37h.8c2.11.27,4.22,1.06,7.92,3.7,6.61,4.89,35.67,30.39,35.94,30.65a5.55,5.55,0,0,1,1.72,4.23,4.92,4.92,0,0,1-2.38,3.7,6.91,6.91,0,0,1-3.83,1.19,7.6,7.6,0,0,1-3.44-.93c-.13-.13-10-9.25-13.74-12.28a2.8,2.8,0,0,0-1.72-.93,1.14,1.14,0,0,0-.79.4c-.53.66.13,1.72.79,2.38l11.63,11.75A5.38,5.38,0,0,1,133.44,84c.13,2-.8,3.57-2.78,4.89a7.11,7.11,0,0,1-4.09,1.32,5.18,5.18,0,0,1-3.31-1l-1.71-1.59c-3-3-6.21-6.08-8.46-8.06a2.78,2.78,0,0,0-1.72-.92,1.89,1.89,0,0,0-.79.26c-.26.27-.4.8.26,1.72a4.91,4.91,0,0,0,.53.66l8.46,9.51a3.22,3.22,0,0,1,.13,4.1l-.26.39-.8.8a6.84,6.84,0,0,1-4.09,1.32,3.69,3.69,0,0,1-1.19-.13,3.73,3.73,0,0,1-1.72-.66l-.13-.14a97.38,97.38,0,0,0-8.32-7.79c-.53-.4-1.06-.93-1.72-.93a1.14,1.14,0,0,0-.79.4c-.67.79.39,1.85.79,2.38L109,98.56c0,.13-.13.26-.26.53s-1.19,1.18-3.83,1.58H104a16.94,16.94,0,0,1-7.13-2.11,11.31,11.31,0,0,0,1.06-4.63A10.89,10.89,0,0,0,87.06,83.1h-.39c.13-2.77-.14-7.93-5.55-10.17a11.72,11.72,0,0,0-4.49-1.06,9.17,9.17,0,0,0-3.31.66A8.92,8.92,0,0,0,68,68a13.58,13.58,0,0,0-3.83-.66,10.14,10.14,0,0,0-6.08,2,9.19,9.19,0,0,0-13.61-.79c-2.24-1.72-11.23-7.4-35.14-12.82-1.19-.26-3.7-1-5.42-1.45C6.74,43.33,13.61,33.42,23.65,25.37ZM68.17,87.72l-.26-.26h-.27c-.26,0-.39.13-.79.26a5.69,5.69,0,0,1-3.57,1.33,5.38,5.38,0,0,1-2-.4c-5.55-2.12-5.15-7.4-4.89-9a1,1,0,0,0-.26-.79l-.4-.26-.39.39a5.59,5.59,0,0,1-4,1.59,5.82,5.82,0,0,1,0-11.63,5.71,5.71,0,0,1,5.68,5l.27,1.59.79-1.32a8.52,8.52,0,0,1,6.74-3.7,8.12,8.12,0,0,1,2.51.4,5.84,5.84,0,0,1,4.09,5.41.69.69,0,0,0,.66.79.74.74,0,0,0,.67-.39A5.75,5.75,0,0,1,77,74.91a9,9,0,0,1,3.17.66c5.42,2.38,2.91,9.25,2.91,9.25-.53,1.19-.53,1.58,0,2l.26.13h.14a6.11,6.11,0,0,0,1-.26A9.29,9.29,0,0,1,87.46,86h0a7.47,7.47,0,0,1,7.4,7.39,7.41,7.41,0,0,1-14.8.4c0-.4,0-1.19-.79-1.19-.27,0-.53.13-.93.53A5.06,5.06,0,0,1,72.4,94.2c-4.23-1.72-4.23-4.63-4.1-5.82A1.81,1.81,0,0,0,68.17,87.72ZM94.46,120c-50.2,0-90.89-26-90.89-58.13A37.9,37.9,0,0,1,3.83,58c.4.13,4.36,1.06,5.15,1.19,24.44,5.41,32.5,11.09,34,12.15a7.83,7.83,0,0,0-.66,3.57A9.12,9.12,0,0,0,51.39,84a7.67,7.67,0,0,0,1.72-.13A10.47,10.47,0,0,0,60,91.82a9.74,9.74,0,0,0,3.3.66,11.81,11.81,0,0,0,2.12-.26,9.36,9.36,0,0,0,5.68,5.28,8.69,8.69,0,0,0,3.56.79,6.87,6.87,0,0,0,2.78-.53,10.78,10.78,0,0,0,10,6.74,11,11,0,0,0,7.79-3.3c1.72.92,5.42,2.77,9.12,2.77a4.1,4.1,0,0,0,1.32-.13c3.7-.53,5.42-1.85,6.21-3a2.71,2.71,0,0,0,.4-.66,10.06,10.06,0,0,0,2.9.4,9.92,9.92,0,0,0,6-2.11c2-1.46,3.3-3.44,3.43-5v-.13a10.46,10.46,0,0,0,2,.27,10.72,10.72,0,0,0,6.07-2,8.79,8.79,0,0,0,4.36-7.8,10.34,10.34,0,0,0,2,.26,10.19,10.19,0,0,0,5.69-1.71,8.42,8.42,0,0,0,4-6.48,7.82,7.82,0,0,0-1.32-5.15A233.33,233.33,0,0,1,185,58.92a21.8,21.8,0,0,1,.13,2.91C185.36,93.93,144.67,120,94.46,120Z"/><path class="cls-3" d="M512.87,19c-3.44-4.36-8.59-6.47-15.59-6.47S485.12,14.66,481.69,19a23.73,23.73,0,0,0-5.15,15.2,23.56,23.56,0,0,0,5.15,15.32c3.43,4.23,8.59,6.34,15.59,6.34s12.15-2.11,15.59-6.34A23.62,23.62,0,0,0,518,34.22,23.79,23.79,0,0,0,512.87,19Zm-8.46,24.71a8.4,8.4,0,0,1-7.13,3.3c-3.17,0-5.55-1.05-7.14-3.3s-2.51-5.42-2.51-9.38.8-7.27,2.51-9.38a8.43,8.43,0,0,1,7.14-3.3c3.17,0,5.55,1,7.13,3.3s2.51,5.28,2.51,9.38S506.13,41.48,504.41,43.73Z"/><path class="cls-3" d="M425.28,15.46a26.25,26.25,0,0,0-11.89-2.64c-6.87,0-11.76,1.84-14.54,5.41a16.6,16.6,0,0,0-3,8.85h10.31a8.69,8.69,0,0,1,1.45-3.7c1.06-1.18,2.91-1.85,5.42-1.85a10.87,10.87,0,0,1,5.15.93,3.59,3.59,0,0,1,1.72,3.43,3.32,3.32,0,0,1-2.25,3,15.7,15.7,0,0,1-4.22.93l-3.7.39a26.67,26.67,0,0,0-9.38,2.65c-3.83,2.24-5.82,5.81-5.82,10.83,0,3.83,1.19,6.87,3.57,9s5.55,3,9.25,3.17c23.25,1.06,23-12.28,23.25-15.06V25.5C430.43,20.61,428.71,17.17,425.28,15.46Zm-5.42,23.25c-.13,3.57-1.06,6.08-3,7.4a11.32,11.32,0,0,1-6.47,2,5.65,5.65,0,0,1-3.7-1.19,4.62,4.62,0,0,1-1.59-4,4.76,4.76,0,0,1,2.51-4.49A18.39,18.39,0,0,1,412.46,37l2.38-.39a29.13,29.13,0,0,0,2.91-.8,10.56,10.56,0,0,0,2.11-1v4Z"/><path class="cls-3" d="M372.17,21.93c2.64,0,4.62.79,5.94,2.51a7.88,7.88,0,0,1,1.59,4.1h11.49c-.66-5.82-2.64-9.78-6.08-12.16S377.32,13,371.9,13c-6.34,0-11.23,2-14.93,5.81S351.56,28,351.56,35c0,6.21,1.58,11.23,4.88,15.06s8.33,5.81,15.2,5.81,12.15-2.37,15.59-7a17.06,17.06,0,0,0,3.7-9.11h-11.5a11,11,0,0,1-2,5.28q-1.59,2-5.55,2a7.46,7.46,0,0,1-7.53-5,18.52,18.52,0,0,1-1.06-7.13,22.84,22.84,0,0,1,1.06-7.53C365.82,23.65,368.33,21.93,372.17,21.93Z"/><path class="cls-3" d="M348.52,13c-23.65,0-22.2,20.87-22.2,20.87V55.09H337v-20c0-3.3.4-5.68,1.19-7.26,1.46-2.78,4.36-4.23,8.59-4.23h1.32c.53,0,1.06.13,1.85.13V13h-1.45Z"/><path class="cls-3" d="M317.74,20.87a17.12,17.12,0,0,0-7-6.07A22.22,22.22,0,0,0,301.22,13c-5.94,0-10.83,1.85-14.53,5.68s-5.55,9.11-5.55,16.25c0,7.53,2.11,12.95,6.21,16.25a22.13,22.13,0,0,0,14.27,5c6.6,0,11.62-2,15.32-5.95a14.08,14.08,0,0,0,3.7-6.21H309.15a5.76,5.76,0,0,1-1.46,1.59c-1.45,1.19-3.56,1.58-5.94,1.58a10.88,10.88,0,0,1-5.68-1.32c-2.64-1.58-4.23-4.36-4.36-8.45H321.3a61.79,61.79,0,0,0-.39-8.06A19.3,19.3,0,0,0,317.74,20.87ZM292,30.25a11.7,11.7,0,0,1,2.78-6.34,8.18,8.18,0,0,1,6.34-2.38,9.55,9.55,0,0,1,6.34,2.25c1.72,1.45,2.64,3.57,2.77,6.47Z"/><path class="cls-3" d="M259.74,12.82a15.31,15.31,0,0,0-12.16,5.68,15.29,15.29,0,0,0-12.15-5.68c-10.44,0-17.18,7.66-17.18,17.83V55.09H228V30.39c0-4.5,3-7.67,7.4-7.67,6.47,0,7.13,5.29,7.13,7.67V55h9.78V30.39a7.29,7.29,0,0,1,7.4-7.67c6.47,0,7.13,5.29,7.13,7.67V55h9.78V30.65C276.65,20.21,270.44,12.82,259.74,12.82Z"/><path class="cls-3" d="M462.53,7.53V19a12.56,12.56,0,0,0-4.62-4.49A13.3,13.3,0,0,0,451.3,13a15.67,15.67,0,0,0-12.81,5.94c-3.17,4-4.76,9.78-4.76,16.65,0,6.08,1.59,11,4.89,14.8s9.64,5.54,15.19,5.54C473.5,55.88,473.23,39,473.23,39V.13C473.37.13,462.53-1.06,462.53,7.53Zm-2,36.33a7.77,7.77,0,0,1-6.87,3.3,7.51,7.51,0,0,1-6.74-3.43,17.46,17.46,0,0,1-2.24-9.25,16.46,16.46,0,0,1,2.11-8.72c1.45-2.38,3.7-3.56,6.87-3.56a8.34,8.34,0,0,1,5.42,2c2.51,2.11,3.83,5.94,3.83,11A17,17,0,0,1,460.55,43.86Z"/><path class="cls-3" d="M240.84,71.34c-8.85-.39-13.21,1.72-16.11,4-4,3-6.48,7.53-6.48,14.79v37.13h5.16a5.74,5.74,0,0,0,3.83-1.46,4.92,4.92,0,0,0,1.71-3.83V108.07a11.71,11.71,0,0,0,5,4.76,16.48,16.48,0,0,0,6.87,1.45,14.94,14.94,0,0,0,12.16-6c3.17-4.09,4.76-9.24,4.76-15.85,0-6.34-1.46-11.1-5-15.46A17.26,17.26,0,0,0,240.84,71.34Zm3.7,30.52a8.26,8.26,0,0,1-13.21,0C229.75,99.88,229,97,229,93c0-4.23.8-7.4,2.25-9.25a8,8,0,0,1,6.61-3.3,7.68,7.68,0,0,1,6.73,3.3c1.59,2.11,2.38,5.29,2.38,9.25S246,99.75,244.54,101.86Z"/><path class="cls-3" d="M332.8,75.17c-3.7-2.77-7.4-4.22-13.74-4s-11.23,2-14.14,5.94-4.36,9.12-4.36,15.59c0,5.42,1.06,9.91,3.3,13.22a17.72,17.72,0,0,0,7.93,6.87,16.36,16.36,0,0,0,9.38.79,12,12,0,0,0,7.53-5.42v2.64c-.26,3.31-1.06,5.82-2.38,7.4a9.11,9.11,0,0,1-4.62,3,7.82,7.82,0,0,1-5.15-.66,8.6,8.6,0,0,1-3.84-3.3H301.49c2.9,8.72,8.19,12.68,17.57,13.34,15.19,1.06,20.08-11.76,20.08-18.76V90C339.14,82.84,336.76,78.21,332.8,75.17Zm-4.5,21.54a10.87,10.87,0,0,1-2,5.28c-2,2.64-5,3.7-9.11,2.91S311,100.14,311,93a21.18,21.18,0,0,1,1.85-8.85c1.19-2.51,3.56-3.83,7.13-3.83a6.73,6.73,0,0,1,5.81,2.77,13.25,13.25,0,0,1,2.51,6.34A22.17,22.17,0,0,1,328.3,96.71Z"/><path class="cls-3" d="M291.31,74.12a26.22,26.22,0,0,0-11.89-2.65c-6.87,0-11.76,1.85-14.53,5.42a16.44,16.44,0,0,0-3,8.85h10.31a8.69,8.69,0,0,1,1.45-3.7c1.06-1.19,2.91-1.85,5.42-1.85a10.89,10.89,0,0,1,5.15.93,3.59,3.59,0,0,1,1.72,3.43,3.34,3.34,0,0,1-2.25,3,15.79,15.79,0,0,1-4.23.93l-3.7.39a26.81,26.81,0,0,0-9.38,2.65c-4,2.24-5.81,5.81-5.81,10.83,0,3.83,1.19,6.87,3.57,9s5.55,3,9.24,3.17c23.26,1.06,23-12.28,23.26-15.06V84.16C296.6,79.27,294.75,76,291.31,74.12ZM285.9,97.37c-.14,3.57-1.06,6.08-3,7.4a11.35,11.35,0,0,1-6.48,2,5.68,5.68,0,0,1-3.7-1.19,5,5,0,0,1-1.58-4,4.76,4.76,0,0,1,2.51-4.5,18.71,18.71,0,0,1,4.89-1.45l2.38-.4a26.64,26.64,0,0,0,2.9-.79,15,15,0,0,0,2.12-1.06v4Z"/><path class="cls-3" d="M379.56,77.55c-3.43-4.36-8.58-6.47-15.58-6.47s-12.16,2.11-15.59,6.47a23.73,23.73,0,0,0-5.16,15.19,23.6,23.6,0,0,0,5.16,15.33c3.43,4.23,8.58,6.34,15.59,6.34s12.15-2.11,15.58-6.34a23.6,23.6,0,0,0,5.16-15.33A23.48,23.48,0,0,0,379.56,77.55Zm-8.45,24.57a8.43,8.43,0,0,1-7.13,3.31c-3.18,0-5.55-1.06-7.14-3.31s-2.51-5.28-2.51-9.38.79-7.26,2.51-9.38a8.45,8.45,0,0,1,7.14-3.3c3.17,0,5.54,1.06,7.13,3.3s2.51,5.29,2.51,9.38S372.69,100,371.11,102.12Z"/></g></g></svg>